# xmcd CD database file
#
# Track frame offsets:
#	187
#	24647
#	46277
#	62020
#	89185
#	103462
#	121872
#	139520
#	159130
#
# Disc length: 2401 seconds
#
# Revision: 1
# Processed by: cddbd v1.5PL3 Copyright (c) Steve Scherf et al.
# Submitted via: CDex 1.51
#
DISCID=76095f09
DTITLE=Earthshaker - Earthshaker
DYEAR=1983
DGENRE=Hard Rock
TTITLE0=Earthshaker
TTITLE1=Wall
TTITLE2=412
TTITLE3=I feel all sadness
TTITLE4=Dark Angel(animals)
TTITLE5=Marionette
TTITLE6=Children's dream
TTITLE7=Time is going
TTITLE8=Yume no hate o
EXTD=YEAR: 1983
EXTT0=
EXTT1=
EXTT2=
EXTT3=
EXTT4=
EXTT5=
EXTT6=
EXTT7=
EXTT8=
PLAYORDER=
